<svg width="64" height="64" viewBox="0 0 64 64" fill="none" xmlns="http://www.w3.org/2000/svg">
  <!-- Background circle with gradient -->
  <defs>
    <linearGradient id="bg" x1="0%" y1="0%" x2="100%" y2="100%">
      <stop offset="0%" style="stop-color:#8B5FBF;stop-opacity:1" />
      <stop offset="50%" style="stop-color:#6366F1;stop-opacity:1" />
      <stop offset="100%" style="stop-color:#4F46E5;stop-opacity:1" />
    </linearGradient>
    <linearGradient id="icon" x1="0%" y1="0%" x2="100%" y2="100%">
      <stop offset="0%" style="stop-color:#FFFFFF;stop-opacity:1" />
      <stop offset="100%" style="stop-color:#E5E7EB;stop-opacity:1" />
    </linearGradient>
  </defs>
  
  <!-- Background -->
  <circle cx="32" cy="32" r="28" fill="url(#bg)" />
  
  <!-- AI Brain/Neural Network Icon -->
  <g fill="url(#icon)">
    <!-- Central hub -->
    <circle cx="32" cy="32" r="3" />
    
    <!-- Neural nodes -->
    <circle cx="20" cy="20" r="2" />
    <circle cx="44" cy="20" r="2" />
    <circle cx="20" cy="44" r="2" />
    <circle cx="44" cy="44" r="2" />
    <circle cx="16" cy="32" r="1.5" />
    <circle cx="48" cy="32" r="1.5" />
    <circle cx="32" cy="16" r="1.5" />
    <circle cx="32" cy="48" r="1.5" />
    
    <!-- Connections -->
    <g stroke="url(#icon)" stroke-width="1.5" fill="none" opacity="0.8">
      <line x1="32" y1="32" x2="20" y2="20" />
      <line x1="32" y1="32" x2="44" y2="20" />
      <line x1="32" y1="32" x2="20" y2="44" />
      <line x1="32" y1="32" x2="44" y2="44" />
      <line x1="32" y1="32" x2="16" y2="32" />
      <line x1="32" y1="32" x2="48" y2="32" />
      <line x1="32" y1="32" x2="32" y2="16" />
      <line x1="32" y1="32" x2="32" y2="48" />
    </g>
    
    <!-- Additional neural connections -->
    <g stroke="url(#icon)" stroke-width="1" fill="none" opacity="0.5">
      <line x1="20" y1="20" x2="32" y2="16" />
      <line x1="44" y1="20" x2="32" y2="16" />
      <line x1="20" y1="44" x2="32" y2="48" />
      <line x1="44" y1="44" x2="32" y2="48" />
      <line x1="20" y1="20" x2="16" y2="32" />
      <line x1="20" y1="44" x2="16" y2="32" />
      <line x1="44" y1="20" x2="48" y2="32" />
      <line x1="44" y1="44" x2="48" y2="32" />
    </g>
  </g>
  
  <!-- Subtle glow effect -->
  <circle cx="32" cy="32" r="28" fill="none" stroke="rgba(255,255,255,0.2)" stroke-width="1" />
</svg> 